<svg width="224" height="72" viewBox="0 0 224 72" fill="none" xmlns="http://www.w3.org/2000/svg">
<path fill-rule="evenodd" clip-rule="evenodd" d="M0.000106812 0H13.0001V2H2.00011V13H0.000106812V0ZM222 2H211V0H224V13H222V2ZM2 70V59H0V72H13.0003V70H2ZM222 70V59H224V72H211V70H222Z" fill="black"/>
<path d="M26.7578 25.9824L28.6523 26.4609C28.2552 28.0169 27.5391 29.205 26.5039 30.0253C25.4753 30.8391 24.2155 31.246 22.7246 31.246C21.1816 31.246 19.9251 30.9335 18.9551 30.3085C17.9915 29.677 17.2559 28.7656 16.748 27.5742C16.2467 26.3828 15.9961 25.1035 15.9961 23.7363C15.9961 22.2454 16.2793 20.9466 16.8457 19.8398C17.4186 18.7265 18.2292 17.8834 19.2773 17.3105C20.332 16.7311 21.4909 16.4414 22.7539 16.4414C24.1862 16.4414 25.3906 16.8059 26.3672 17.5351C27.3438 18.2643 28.0241 19.2897 28.4082 20.6113L26.543 21.0507C26.2109 20.0091 25.7292 19.2506 25.0977 18.7753C24.4661 18.3001 23.6719 18.0624 22.7148 18.0624C21.6146 18.0624 20.6934 18.3261 19.9512 18.8535C19.2155 19.3808 18.6979 20.0904 18.3984 20.9824C18.099 21.8678 17.9492 22.7825 17.9492 23.7265C17.9492 24.944 18.125 26.0084 18.4766 26.9199C18.8346 27.8248 19.388 28.5019 20.1367 28.9511C20.8854 29.4003 21.696 29.6249 22.5684 29.6249C23.6296 29.6249 24.528 29.319 25.2637 28.707C25.9993 28.095 26.4974 27.1868 26.7578 25.9824Z" fill="black"/>
<path d="M31.918 31V16.6836H37.2891C38.3828 16.6836 39.2585 16.8301 39.916 17.123C40.5801 17.4095 41.0977 17.8555 41.4688 18.4609C41.8464 19.0599 42.0352 19.6882 42.0352 20.3457C42.0352 20.9577 41.8691 21.5339 41.5371 22.0742C41.2051 22.6146 40.7038 23.0508 40.0332 23.3828C40.8991 23.6367 41.5632 24.0697 42.0254 24.6816C42.4941 25.2936 42.7285 26.0163 42.7285 26.8496C42.7285 27.5202 42.5853 28.1452 42.2988 28.7246C42.0189 29.2975 41.6706 29.7402 41.2539 30.0527C40.8372 30.3652 40.3132 30.6029 39.6816 30.7656C39.0566 30.9219 38.2884 31 37.377 31H31.918ZM33.8125 22.6992H36.9082C37.748 22.6992 38.3503 22.6439 38.7148 22.5332C39.1966 22.39 39.5579 22.1523 39.7988 21.8203C40.0462 21.4883 40.1699 21.0716 40.1699 20.5703C40.1699 20.0951 40.056 19.6784 39.8281 19.3203C39.6003 18.9557 39.2747 18.7083 38.8516 18.5781C38.4284 18.4414 37.7025 18.373 36.6738 18.373H33.8125V22.6992ZM33.8125 29.3105H37.377C37.9889 29.3105 38.4186 29.2878 38.666 29.2422C39.1022 29.1641 39.4668 29.0339 39.7598 28.8516C40.0527 28.6693 40.2936 28.4056 40.4824 28.0605C40.6712 27.709 40.7656 27.3053 40.7656 26.8496C40.7656 26.3158 40.6289 25.8535 40.3555 25.4629C40.082 25.0658 39.7012 24.7891 39.2129 24.6328C38.7311 24.4701 38.0345 24.3887 37.123 24.3887H33.8125V29.3105Z" fill="black"/>
<path d="M45.0957 24.0273C45.0957 21.651 45.7337 19.7923 47.0098 18.4512C48.2858 17.1035 49.9329 16.4297 51.9512 16.4297C53.2728 16.4297 54.4642 16.7454 55.5254 17.377C56.5866 18.0085 57.3939 18.8906 57.9473 20.0234C58.5072 21.1497 58.7871 22.429 58.7871 23.8613C58.7871 25.3132 58.4941 26.612 57.9082 27.7578C57.3223 28.9036 56.4922 29.7728 55.418 30.3652C54.3438 30.9512 53.1849 31.2441 51.9414 31.2441C50.5938 31.2441 49.3893 30.9186 48.3281 30.2676C47.2669 29.6165 46.4629 28.7279 45.916 27.6016C45.3691 26.4753 45.0957 25.2839 45.0957 24.0273ZM47.0488 24.0566C47.0488 25.7819 47.5111 27.1426 48.4355 28.1387C49.3665 29.1283 50.5319 29.623 51.9316 29.623C53.3574 29.623 54.5293 29.1217 55.4473 28.1191C56.3717 27.1165 56.834 25.694 56.834 23.8516C56.834 22.6862 56.6354 21.6706 56.2383 20.8047C55.8477 19.9323 55.2715 19.2585 54.5098 18.7832C53.7546 18.3014 52.9049 18.0605 51.9609 18.0605C50.6198 18.0605 49.4642 18.5228 48.4941 19.4473C47.5306 20.3652 47.0488 21.9017 47.0488 24.0566Z" fill="black"/>
<path d="M62.2676 16.6855H63.9863V28.0234L71.6035 16.6855H73.5078V31.0019H71.7891V19.6933L64.1621 31.0019H62.2676V16.6855ZM69.3867 13.2773H70.5879C70.4902 14.0911 70.1908 14.7161 69.6895 15.1523C69.1947 15.5885 68.5339 15.8066 67.707 15.8066C66.8737 15.8066 66.2064 15.5917 65.7051 15.1621C65.2103 14.7259 64.9141 14.0976 64.8164 13.2773H66.0176C66.1087 13.72 66.2878 14.052 66.5547 14.2734C66.8281 14.4882 67.1927 14.5957 67.6484 14.5957C68.1758 14.5957 68.5729 14.4915 68.8398 14.2831C69.1133 14.0683 69.2956 13.733 69.3867 13.2773Z" fill="black"/>
<path fill-rule="evenodd" clip-rule="evenodd" d="M209 25H80V23H209V25Z" fill="black"/>
<path d="M167.572 40.6817H169.467V46.9512C170.333 46.9512 170.941 46.7852 171.293 46.4532C171.645 46.1146 172.094 45.3073 172.641 44.0313C173.038 43.0938 173.363 42.433 173.617 42.0489C173.878 41.6583 174.245 41.3327 174.721 41.0723C175.196 40.8054 175.72 40.6719 176.293 40.6719C177.022 40.6719 177.406 40.6784 177.445 40.6915V42.3321C177.38 42.3321 177.253 42.3288 177.064 42.3223C176.856 42.3158 176.729 42.3126 176.684 42.3126C176.078 42.3126 175.629 42.459 175.336 42.752C175.036 43.045 174.695 43.67 174.311 44.627C173.829 45.8379 173.422 46.6029 173.09 46.9219C172.758 47.2344 172.361 47.4851 171.898 47.6739C172.823 47.9278 173.734 48.7807 174.633 50.2325L177.582 54.9981H175.229L172.836 51.1114C172.178 50.0372 171.628 49.3015 171.186 48.9043C170.743 48.5007 170.17 48.2989 169.467 48.2989V54.9981H167.572V40.6817Z" fill="black"/>
<path d="M179.393 48.0273C179.393 45.651 180.031 43.7923 181.307 42.4512C182.583 41.1035 184.23 40.4297 186.248 40.4297C187.57 40.4297 188.761 40.7454 189.822 41.377C190.883 42.0085 191.691 42.8906 192.244 44.0234C192.804 45.1497 193.084 46.429 193.084 47.8613C193.084 49.3132 192.791 50.612 192.205 51.7578C191.619 52.9036 190.789 53.7728 189.715 54.3652C188.641 54.9512 187.482 55.2441 186.238 55.2441C184.891 55.2441 183.686 54.9186 182.625 54.2676C181.564 53.6165 180.76 52.7279 180.213 51.6016C179.666 50.4753 179.393 49.2839 179.393 48.0273ZM181.346 48.0566C181.346 49.7819 181.808 51.1426 182.732 52.1387C183.663 53.1283 184.829 53.623 186.229 53.623C187.654 53.623 188.826 53.1217 189.744 52.1191C190.669 51.1165 191.131 49.694 191.131 47.8516C191.131 46.6862 190.932 45.6706 190.535 44.8047C190.145 43.9323 189.568 43.2585 188.807 42.7832C188.051 42.3014 187.202 42.0605 186.258 42.0605C184.917 42.0605 183.761 42.5228 182.791 43.4473C181.827 44.3652 181.346 45.9017 181.346 48.0566Z" fill="black"/>
<path d="M197.385 40.6836H206.096V53.3105H207.385V58.3398H205.695V55H196.232V58.3398H194.543V53.3105H195.656C196.809 51.5723 197.385 48.0599 197.385 42.7734V40.6836ZM204.201 42.373H199.211V43.1055C199.211 44.3229 199.1 45.9896 198.879 48.1055C198.664 50.2148 198.238 51.9499 197.6 53.3105H204.201V42.373Z" fill="black"/>
<path fill-rule="evenodd" clip-rule="evenodd" d="M162 49H15V47H162V49Z" fill="black"/>
</svg>
