<svg width="434" height="376" viewBox="0 0 434 376" fill="none" xmlns="http://www.w3.org/2000/svg">
<rect x="59" y="264" width="372" height="158" rx="79" transform="rotate(-45 59 264)" fill="url(#paint0_linear_2610_24212)"/>
<path d="M45 91V105.52C45 107.88 44.32 110.04 42.96 112C44.32 113.96 45 116.12 45 118.48V133H3V123.28H35.28V118.48C35.28 118.04 35.14 117.66 34.86 117.34C34.54 117.02 34.16 116.86 33.72 116.86H3V107.14H33.72C34.16 107.14 34.54 106.98 34.86 106.66C35.14 106.34 35.28 105.96 35.28 105.52V100.72H3V91H45ZM92.9883 100.72H60.7083V107.14H92.9883V116.86H60.7083V123.28H92.9883V133H50.9883V91H92.9883V100.72ZM107.857 91H139.177V133H129.457V100.66H116.017L111.037 133H97.1766V123.28H102.817L107.857 91ZM187.148 100.72H154.868V107.14H187.148V116.86H154.868V123.28H187.148V133H145.148V91H187.148V100.72ZM162.668 86.62H154.088V78.1H162.668V86.62ZM178.208 86.62H169.628V78.1H178.208V86.62ZM225.417 91H235.137V133H225.417V116.86H202.857V133H193.137V91H202.857V107.14H225.417V91ZM241.125 91H283.125V133H273.405V116.86H250.845V133H241.125V91ZM273.405 107.14V100.66H250.845V107.14H273.405ZM289.113 91H331.113V133H321.393V116.86H312.453L300.753 133H289.113L300.813 116.86H289.113V91ZM298.833 107.14H321.393V100.72H298.833V107.14ZM35.28 163H45V205H3V163H12.72V195.28H19.14V163H28.8V195.28H35.28V163ZM92.9883 163V188.86H81.2883L92.9883 205H81.3483L69.6483 188.86H60.7083V205H50.9883V163H60.7083V179.14H83.2683V163H92.9883ZM98.9766 163H140.977V205H98.9766V163ZM108.697 195.28H131.257V172.66H108.697V195.28ZM155.845 163H187.165V205H177.445V172.66H164.005L159.025 205H145.165V195.28H150.805L155.845 163ZM193.137 163H235.137V205H225.417V188.86H202.857V205H193.137V163ZM225.417 179.14V172.66H202.857V179.14H225.417ZM3 235H45V260.86H12.72V267.28H45V277H3V251.14H35.28V244.72H3V235ZM50.9883 235H92.9883V277H50.9883V235ZM60.7083 267.28H83.2683V244.66H60.7083V267.28ZM98.9766 235H140.977V260.86H108.697V267.28H140.977V277H98.9766V251.14H131.257V244.72H98.9766V235ZM146.965 235H188.965V260.86H156.685V267.28H188.965V277H146.965V251.14H179.245V244.72H146.965V235Z" fill="#1C1B19"/>
<defs>
<linearGradient id="paint0_linear_2610_24212" x1="67.5162" y1="354.257" x2="339.209" y2="338.717" gradientUnits="userSpaceOnUse">
<stop stop-color="#13D7FF"/>
<stop offset="1" stop-color="#00FF75"/>
</linearGradient>
</defs>
</svg>
