<svg width="24" height="24" viewBox="0 0 24 24" fill="none" xmlns="http://www.w3.org/2000/svg">
<path fill-rule="evenodd" clip-rule="evenodd" d="M11.2328 3.80354C11.4115 3.73215 11.6107 3.73215 11.7894 3.80354L22.3005 8.00354C22.5854 8.11737 22.7722 8.39322 22.7722 8.7C22.7722 9.00678 22.5854 9.28263 22.3005 9.39646L11.7894 13.5965C11.6107 13.6678 11.4115 13.6678 11.2328 13.5965L0.721711 9.39646C0.436833 9.28263 0.25 9.00678 0.25 8.7C0.25 8.39322 0.436833 8.11737 0.721711 8.00354L11.2328 3.80354ZM3.02128 8.7L11.5111 12.0923L20.0009 8.7L11.5111 5.30766L3.02128 8.7Z" fill="url(#paint0_linear_1325_21649)"/>
<path fill-rule="evenodd" clip-rule="evenodd" d="M22.0222 8.00488C22.4364 8.00488 22.7722 8.34067 22.7722 8.75488V13.3665C22.7722 13.7807 22.4364 14.1165 22.0222 14.1165C21.608 14.1165 21.2722 13.7807 21.2722 13.3665V8.75488C21.2722 8.34067 21.608 8.00488 22.0222 8.00488Z" fill="url(#paint1_linear_1325_21649)"/>
<path fill-rule="evenodd" clip-rule="evenodd" d="M5.77774 10.1626C6.19195 10.1626 6.52774 10.4984 6.52774 10.9126V16.7975C6.57068 16.8336 6.61948 16.8738 6.67392 16.9173C6.92824 17.1207 7.3024 17.3944 7.77337 17.6683C8.7211 18.2195 10.0232 18.7499 11.5111 18.7499C12.999 18.7499 14.3011 18.2195 15.2488 17.6683C15.7198 17.3944 16.0939 17.1207 16.3483 16.9173C16.4027 16.8738 16.4515 16.8336 16.4944 16.7975V10.9126C16.4944 10.4984 16.8302 10.1626 17.2444 10.1626C17.6587 10.1626 17.9944 10.4984 17.9944 10.9126V17.1333C17.9944 17.3343 17.9138 17.5269 17.7705 17.6679L17.2444 17.1333C17.7705 17.6679 17.7707 17.6677 17.7705 17.6679L17.7686 17.6697L17.7658 17.6725L17.7576 17.6804L17.7305 17.7062C17.7078 17.7275 17.6758 17.7571 17.6349 17.7937C17.5532 17.8669 17.4356 17.9684 17.285 18.0889C16.9844 18.3292 16.5493 18.6472 16.0029 18.9649C14.9161 19.5971 13.3515 20.2499 11.5111 20.2499C9.6707 20.2499 8.1061 19.5971 7.01924 18.9649C6.4729 18.6472 6.03778 18.3292 5.73715 18.0889C5.58657 17.9684 5.46897 17.8669 5.38725 17.7937C5.34636 17.7571 5.31439 17.7275 5.29169 17.7062L5.26463 17.6804L5.25638 17.6725L5.25359 17.6697L5.25253 17.6687C5.25233 17.6685 5.2517 17.6679 5.77774 17.1333L5.2517 17.6679C5.10842 17.5269 5.02774 17.3343 5.02774 17.1333V10.9126C5.02774 10.4984 5.36353 10.1626 5.77774 10.1626Z" fill="url(#paint2_linear_1325_21649)"/>
<defs>
<linearGradient id="paint0_linear_1325_21649" x1="2.19723" y1="4.35844" x2="8.59325" y2="19.5148" gradientUnits="userSpaceOnUse">
<stop stop-color="#13D7FF"/>
<stop offset="1" stop-color="#00FF75"/>
<stop offset="1" stop-color="#00FF75"/>
</linearGradient>
<linearGradient id="paint1_linear_1325_21649" x1="21.4019" y1="8.38049" x2="24.047" y2="9.05671" gradientUnits="userSpaceOnUse">
<stop stop-color="#13D7FF"/>
<stop offset="1" stop-color="#00FF75"/>
<stop offset="1" stop-color="#00FF75"/>
</linearGradient>
<linearGradient id="paint2_linear_1325_21649" x1="6.14882" y1="10.7825" x2="14.8713" y2="22.4614" gradientUnits="userSpaceOnUse">
<stop stop-color="#13D7FF"/>
<stop offset="1" stop-color="#00FF75"/>
<stop offset="1" stop-color="#00FF75"/>
</linearGradient>
</defs>
</svg>
