<svg width="24" height="24" viewBox="0 0 24 24" fill="none" xmlns="http://www.w3.org/2000/svg">
<path d="M11 10C10.4259 10.4295 9.95085 10.9774 9.60709 11.6065C9.26334 12.2357 9.05892 12.9315 9.0077 13.6466C8.95648 14.3618 9.05967 15.0796 9.31025 15.7513C9.56084 16.4231 9.95296 17.0331 10.46 17.54L13.46 20.54C14.403 21.4508 15.6661 21.9548 16.977 21.9434C18.288 21.932 19.5421 21.4061 20.4691 20.4791C21.3962 19.5521 21.922 18.298 21.9334 16.987C21.9448 15.676 21.4408 14.413 20.53 13.47L18.82 11.75" stroke="#00A3FF" stroke-width="2" stroke-linecap="round" stroke-linejoin="round"/>
<path d="M12.9998 14C13.5739 13.5706 14.049 13.0227 14.3927 12.3935C14.7365 11.7643 14.9409 11.0685 14.9921 10.3534C15.0433 9.63822 14.9401 8.92043 14.6896 8.24867C14.439 7.57691 14.0468 6.9669 13.5398 6.46002L10.5398 3.46002C9.59676 2.54923 8.33375 2.04525 7.02277 2.05665C5.71178 2.06804 4.45772 2.59388 3.53068 3.52092C2.60364 4.44796 2.0778 5.70203 2.0664 7.01301C2.05501 8.32399 2.55898 9.587 3.46977 10.53L5.17977 12.24" stroke="#00A3FF" stroke-width="2" stroke-linecap="round" stroke-linejoin="round"/>
</svg>
