<svg width="24" height="24" viewBox="0 0 24 24" fill="none" xmlns="http://www.w3.org/2000/svg">
<path fill-rule="evenodd" clip-rule="evenodd" d="M8.75 6V4.5H14.75V6H8.75ZM16.25 4.25V6H20.5C21.1904 6 21.75 6.55964 21.75 7.25V14.75V19.75C21.75 20.4404 21.1904 21 20.5 21H3.5C2.80964 21 2.25 20.4404 2.25 19.75V14.75V7.25C2.25 6.55964 2.80964 6 3.5 6H7.25V4.25C7.25 3.55964 7.80964 3 8.5 3H15C15.6904 3 16.25 3.55964 16.25 4.25ZM3.75 14V7.5H20.25V14H13.5V13.95C13.5 13.5634 13.1866 13.25 12.8 13.25H11.2C10.8134 13.25 10.5 13.5634 10.5 13.95V14H3.75ZM10.5 15.5H3.75V19.5H20.25V15.5H13.5V15.55C13.5 15.9366 13.1866 16.25 12.8 16.25H11.2C10.8134 16.25 10.5 15.9366 10.5 15.55V15.5Z" fill="#11dbf3"/>
</svg>
